<mxfile host="app.diagrams.net" modified="2023-12-19T17:38:37.747Z" agent="Mozilla/5.0 (Windows NT 10.0; Win64; x64) AppleWebKit/537.36 (KHTML, like Gecko) Chrome/120.0.0.0 Safari/537.36 Edg/120.0.0.0" etag="3LBBUQ3ShbjV62mOyB1F" version="22.1.11" type="github">
  <diagram id="prtHgNgQTEPvFCAcTncT" name="Page-1">
    <mxGraphModel dx="767" dy="326" grid="1" gridSize="10" guides="1" tooltips="1" connect="1" arrows="1" fold="1" page="1" pageScale="1" pageWidth="827" pageHeight="1169" math="0" shadow="0">
      <root>
        <mxCell id="0" />
        <mxCell id="1" parent="0" />
        <mxCell id="dNxyNK7c78bLwvsdeMH5-19" value="" style="swimlane;html=1;childLayout=stackLayout;resizeParent=1;resizeParentMax=0;horizontal=0;startSize=0;horizontalStack=0;" parent="1" vertex="1">
          <mxGeometry x="120" y="120" width="470" height="360" as="geometry">
            <mxRectangle x="120" y="120" width="40" height="60" as="alternateBounds" />
          </mxGeometry>
        </mxCell>
        <mxCell id="dNxyNK7c78bLwvsdeMH5-20" value="Solicitante" style="swimlane;html=1;startSize=20;horizontal=0;" parent="dNxyNK7c78bLwvsdeMH5-19" vertex="1">
          <mxGeometry width="470" height="120" as="geometry" />
        </mxCell>
        <mxCell id="kWbJcFKVmSHzYa9t39UG-54" style="edgeStyle=orthogonalEdgeStyle;rounded=0;orthogonalLoop=1;jettySize=auto;html=1;exitX=0.5;exitY=1;exitDx=0;exitDy=0;entryX=0.5;entryY=0;entryDx=0;entryDy=0;" edge="1" parent="dNxyNK7c78bLwvsdeMH5-20" source="kWbJcFKVmSHzYa9t39UG-16" target="kWbJcFKVmSHzYa9t39UG-17">
          <mxGeometry relative="1" as="geometry" />
        </mxCell>
        <mxCell id="kWbJcFKVmSHzYa9t39UG-16" value="&lt;div style=&quot;&quot;&gt;&lt;font style=&quot;font-size: 6px;&quot;&gt;&lt;br&gt;&lt;/font&gt;&lt;/div&gt;&lt;div style=&quot;&quot;&gt;&lt;font style=&quot;font-size: 6px;&quot;&gt;SELECIONAR FORNECEDOR E ABASTECIMENTO&lt;/font&gt;&lt;/div&gt;&lt;div style=&quot;font-size: 11px;&quot;&gt;&lt;br&gt;&lt;/div&gt;" style="rounded=0;whiteSpace=wrap;html=1;" vertex="1" parent="dNxyNK7c78bLwvsdeMH5-20">
          <mxGeometry x="50" y="10" width="60" height="40" as="geometry" />
        </mxCell>
        <mxCell id="kWbJcFKVmSHzYa9t39UG-17" value="" style="ellipse;whiteSpace=wrap;html=1;fillColor=#f8cecc;strokeColor=#b85450;" vertex="1" parent="dNxyNK7c78bLwvsdeMH5-20">
          <mxGeometry x="70" y="80" width="20" height="20" as="geometry" />
        </mxCell>
        <mxCell id="kWbJcFKVmSHzYa9t39UG-21" value="&lt;font style=&quot;font-size: 10px;&quot;&gt;Refazer&lt;/font&gt;" style="rounded=0;whiteSpace=wrap;html=1;" vertex="1" parent="dNxyNK7c78bLwvsdeMH5-20">
          <mxGeometry x="120" y="10" width="60" height="40" as="geometry" />
        </mxCell>
        <mxCell id="kWbJcFKVmSHzYa9t39UG-37" value="&lt;font style=&quot;font-size: 9px;&quot;&gt;Fim&lt;/font&gt;" style="ellipse;whiteSpace=wrap;html=1;fillColor=#f8cecc;strokeColor=#b85450;" vertex="1" parent="dNxyNK7c78bLwvsdeMH5-20">
          <mxGeometry x="380" y="30" width="20" height="20" as="geometry" />
        </mxCell>
        <mxCell id="dNxyNK7c78bLwvsdeMH5-21" value="&lt;font style=&quot;font-size: 9px;&quot;&gt;Gestor Aprovador&lt;/font&gt;" style="swimlane;html=1;startSize=20;horizontal=0;" parent="dNxyNK7c78bLwvsdeMH5-19" vertex="1">
          <mxGeometry y="120" width="470" height="120" as="geometry" />
        </mxCell>
        <mxCell id="kWbJcFKVmSHzYa9t39UG-25" value="&lt;font style=&quot;font-size: 6px;&quot;&gt;Avançar&lt;/font&gt;" style="rhombus;whiteSpace=wrap;html=1;" vertex="1" parent="dNxyNK7c78bLwvsdeMH5-21">
          <mxGeometry x="130" y="25" width="40" height="40" as="geometry" />
        </mxCell>
        <mxCell id="kWbJcFKVmSHzYa9t39UG-56" style="edgeStyle=orthogonalEdgeStyle;rounded=0;orthogonalLoop=1;jettySize=auto;html=1;exitX=1;exitY=0.5;exitDx=0;exitDy=0;entryX=0;entryY=0.5;entryDx=0;entryDy=0;" edge="1" parent="dNxyNK7c78bLwvsdeMH5-21" source="kWbJcFKVmSHzYa9t39UG-41" target="kWbJcFKVmSHzYa9t39UG-25">
          <mxGeometry relative="1" as="geometry" />
        </mxCell>
        <mxCell id="kWbJcFKVmSHzYa9t39UG-41" value="&lt;div style=&quot;&quot;&gt;&lt;div style=&quot;&quot;&gt;&lt;font style=&quot;font-size: 8px;&quot;&gt;&lt;br&gt;&lt;/font&gt;&lt;/div&gt;&lt;div style=&quot;&quot;&gt;&lt;font style=&quot;font-size: 8px;&quot;&gt;ANALISAR E APROVAR&lt;/font&gt;&lt;/div&gt;&lt;div style=&quot;&quot;&gt;&lt;br&gt;&lt;/div&gt;&lt;/div&gt;" style="rounded=0;whiteSpace=wrap;html=1;align=center;" vertex="1" parent="dNxyNK7c78bLwvsdeMH5-21">
          <mxGeometry x="50" y="25" width="60" height="40" as="geometry" />
        </mxCell>
        <mxCell id="dNxyNK7c78bLwvsdeMH5-22" value="Patrimonio&lt;br&gt;" style="swimlane;html=1;startSize=20;horizontal=0;" parent="dNxyNK7c78bLwvsdeMH5-19" vertex="1">
          <mxGeometry y="240" width="470" height="120" as="geometry" />
        </mxCell>
        <mxCell id="kWbJcFKVmSHzYa9t39UG-61" style="edgeStyle=orthogonalEdgeStyle;rounded=0;orthogonalLoop=1;jettySize=auto;html=1;exitX=0.5;exitY=0;exitDx=0;exitDy=0;" edge="1" parent="dNxyNK7c78bLwvsdeMH5-22" source="kWbJcFKVmSHzYa9t39UG-28">
          <mxGeometry relative="1" as="geometry">
            <mxPoint x="230" y="-150" as="targetPoint" />
          </mxGeometry>
        </mxCell>
        <mxCell id="kWbJcFKVmSHzYa9t39UG-28" value="&lt;font style=&quot;font-size: 6px;&quot;&gt;Avançar&lt;/font&gt;" style="rhombus;whiteSpace=wrap;html=1;" vertex="1" parent="dNxyNK7c78bLwvsdeMH5-22">
          <mxGeometry x="210" y="40" width="40" height="40" as="geometry" />
        </mxCell>
        <mxCell id="kWbJcFKVmSHzYa9t39UG-53" value="&lt;div style=&quot;&quot;&gt;&lt;div style=&quot;&quot;&gt;&lt;font style=&quot;font-size: 8px;&quot;&gt;&lt;br&gt;&lt;/font&gt;&lt;/div&gt;&lt;div style=&quot;&quot;&gt;&lt;font style=&quot;font-size: 8px;&quot;&gt;ANALISAR E APROVAR&lt;/font&gt;&lt;/div&gt;&lt;div style=&quot;&quot;&gt;&lt;br&gt;&lt;/div&gt;&lt;/div&gt;" style="rounded=0;whiteSpace=wrap;html=1;align=center;" vertex="1" parent="dNxyNK7c78bLwvsdeMH5-22">
          <mxGeometry x="120" y="40" width="60" height="40" as="geometry" />
        </mxCell>
        <mxCell id="kWbJcFKVmSHzYa9t39UG-59" style="edgeStyle=orthogonalEdgeStyle;rounded=0;orthogonalLoop=1;jettySize=auto;html=1;exitX=1;exitY=0.5;exitDx=0;exitDy=0;entryX=-0.071;entryY=0.518;entryDx=0;entryDy=0;entryPerimeter=0;" edge="1" parent="dNxyNK7c78bLwvsdeMH5-22" source="kWbJcFKVmSHzYa9t39UG-53" target="kWbJcFKVmSHzYa9t39UG-28">
          <mxGeometry relative="1" as="geometry" />
        </mxCell>
        <mxCell id="kWbJcFKVmSHzYa9t39UG-55" style="edgeStyle=orthogonalEdgeStyle;rounded=0;orthogonalLoop=1;jettySize=auto;html=1;exitX=0.5;exitY=1;exitDx=0;exitDy=0;entryX=0.5;entryY=0;entryDx=0;entryDy=0;" edge="1" parent="dNxyNK7c78bLwvsdeMH5-19" source="kWbJcFKVmSHzYa9t39UG-17" target="kWbJcFKVmSHzYa9t39UG-41">
          <mxGeometry relative="1" as="geometry" />
        </mxCell>
        <mxCell id="kWbJcFKVmSHzYa9t39UG-58" style="edgeStyle=orthogonalEdgeStyle;rounded=0;orthogonalLoop=1;jettySize=auto;html=1;exitX=0.5;exitY=1;exitDx=0;exitDy=0;entryX=0.5;entryY=0;entryDx=0;entryDy=0;" edge="1" parent="dNxyNK7c78bLwvsdeMH5-19" source="kWbJcFKVmSHzYa9t39UG-25" target="kWbJcFKVmSHzYa9t39UG-53">
          <mxGeometry relative="1" as="geometry" />
        </mxCell>
        <mxCell id="kWbJcFKVmSHzYa9t39UG-60" style="edgeStyle=orthogonalEdgeStyle;rounded=0;orthogonalLoop=1;jettySize=auto;html=1;exitX=1;exitY=0.5;exitDx=0;exitDy=0;entryX=1.008;entryY=0.601;entryDx=0;entryDy=0;entryPerimeter=0;" edge="1" parent="dNxyNK7c78bLwvsdeMH5-19" source="kWbJcFKVmSHzYa9t39UG-25" target="kWbJcFKVmSHzYa9t39UG-21">
          <mxGeometry relative="1" as="geometry">
            <Array as="points">
              <mxPoint x="230" y="165" />
              <mxPoint x="230" y="34" />
            </Array>
          </mxGeometry>
        </mxCell>
        <mxCell id="kWbJcFKVmSHzYa9t39UG-64" style="edgeStyle=orthogonalEdgeStyle;rounded=0;orthogonalLoop=1;jettySize=auto;html=1;exitX=1;exitY=0.5;exitDx=0;exitDy=0;entryX=0.5;entryY=1;entryDx=0;entryDy=0;" edge="1" parent="dNxyNK7c78bLwvsdeMH5-19" source="kWbJcFKVmSHzYa9t39UG-28" target="kWbJcFKVmSHzYa9t39UG-37">
          <mxGeometry relative="1" as="geometry" />
        </mxCell>
        <mxCell id="kWbJcFKVmSHzYa9t39UG-69" style="edgeStyle=orthogonalEdgeStyle;rounded=0;orthogonalLoop=1;jettySize=auto;html=1;exitX=0.5;exitY=1;exitDx=0;exitDy=0;" edge="1" parent="dNxyNK7c78bLwvsdeMH5-19" source="kWbJcFKVmSHzYa9t39UG-21" target="kWbJcFKVmSHzYa9t39UG-41">
          <mxGeometry relative="1" as="geometry">
            <Array as="points">
              <mxPoint x="150" y="98" />
              <mxPoint x="100" y="98" />
            </Array>
          </mxGeometry>
        </mxCell>
      </root>
    </mxGraphModel>
  </diagram>
</mxfile>
